<?xml version="1.0" encoding="iso-8859-1"?>
<!-- Generator: Adobe Illustrator 19.0.0, SVG Export Plug-In . SVG Version: 6.00 Build 0)  -->
<svg version="1.1" id="Layer_1" xmlns="http://www.w3.org/2000/svg" xmlns:xlink="http://www.w3.org/1999/xlink" x="0px" y="0px"
	 viewBox="0 0 512 512" style="enable-background:new 0 0 512 512;" xml:space="preserve">
<g transform="translate(1)">
	<path style="fill:#FD9808;" d="M454.68,127.96c-4.267-17.067-13.653-33.28-29.867-40.107c-6.827-3.413-15.36-5.12-24.747-3.413
		c0,0-15.36-19.627-17.067-59.733c0,0-34.133-2.56-42.667,25.6c0,0,34.987,22.187,34.133,51.2c0,0-0.853,27.307,8.533,42.667
		c7.68,13.653,24.747,67.413-32.427,137.387c4.267,10.24,6.827,21.333,6.827,33.28c0,13.653-3.413,25.6-8.533,37.547
		c24.747-2.56,47.787-6.827,68.267-11.947C457.24,296.92,479.427,230.36,454.68,127.96"/>
	<path style="fill:#FFDD09;" d="M435.053,127.96c-3.413-17.067-9.387-33.28-21.333-40.107c-5.12-3.413-11.093-5.12-17.92-3.413
		c0,0-11.093-19.627-12.8-59.733c0,0-24.747-2.56-30.72,25.6c0,0,25.6,22.187,24.747,51.2c0,0-0.853,27.307,5.973,42.667
		c5.973,13.653,17.92,67.413-23.893,137.387c3.413,10.24,5.12,21.333,5.12,33.28c0,13.653-2.56,25.6-5.973,37.547
		c17.92-2.56,34.133-6.827,49.493-11.947C436.76,296.92,452.973,230.36,435.053,127.96"/>
	<path style="fill:#15A143;" d="M198.68,355.8c3.413-9.387,5.12-19.627,5.12-29.867c0-46.933-38.4-87.893-85.333-87.893
		c-45.227,0-81.92,37.547-85.333,82.773C74.947,338.733,132.973,351.533,198.68,355.8"/>
	<path style="fill:#1CD759;" d="M173.933,355.8c2.56-9.387,4.267-19.627,4.267-29.867c0-46.933-32.427-87.893-72.533-87.893
		c-38.4,0-69.973,37.547-72.533,82.773C68.973,338.733,117.613,351.533,173.933,355.8"/>
	<path style="fill:#33A9F8;" d="M272.067,229.506c-35.84,0-66.56,22.187-79.36,53.76c6.827,12.8,11.093,27.307,11.093,42.667
		c0,10.24-1.707,20.48-5.12,29.867c17.92,0.853,37.547,1.707,56.32,1.707c32.427,0,64-1.707,93.867-5.12
		c5.12-11.093,8.533-23.893,8.533-37.547C357.4,267.906,319,229.506,272.067,229.506"/>
	<path style="fill:#54C9FD;" d="M264.387,229.506c-28.16,0-52.907,22.187-63.147,53.76c5.12,12.8,8.533,27.307,8.533,42.667
		c0,10.24-1.707,20.48-4.267,29.867c14.507,0.853,29.867,1.707,45.227,1.707c25.6,0,51.2-1.707,74.24-5.12
		c4.267-11.093,6.827-23.893,6.827-37.547C331.8,267.906,301.933,229.506,264.387,229.506"/>
	<path style="fill:#FD9808;" d="M192.707,283.266c11.093-28.16,36.693-48.64,67.413-52.907c7.68-12.8,11.947-27.307,11.947-43.52
		c0-46.933-38.4-85.333-85.333-85.333s-85.333,38.4-85.333,85.333c0,19.627,6.827,36.693,17.067,51.2l0,0
		C150.893,238.04,178.2,255.96,192.707,283.266C192.707,283.266,192.707,284.12,192.707,283.266"/>
	<path style="fill:#FFDD09;" d="M195.267,280.706c8.533-28.16,17.067-46.08,41.813-50.347c5.973-12.8,9.387-27.307,9.387-43.52
		c0-46.933-30.72-85.333-68.267-85.333s-68.267,38.4-68.267,85.333c0,19.627,5.12,36.693,13.653,51.2l0,0
		c25.6,0,51.2,15.36,63.147,42.667H195.267"/>
	<path style="fill:#FD9808;" d="M255,442.84c-70.827,0-133.973-12.8-179.2-33.28v75.947h358.4V409.56
		C388.973,430.04,325.827,442.84,255,442.84"/>
	<path style="fill:#FFDD09;" d="M242.2,442.84c-65.707,0-124.587-12.8-166.4-33.28v75.947h332.8V409.56
		C366.787,430.04,307.907,442.84,242.2,442.84"/>
	<path style="fill:#FFFFFF;" d="M101.4,419.8v65.707H75.8V409.56C83.48,412.973,92.013,416.386,101.4,419.8"/>
	<path style="fill:#FD9808;" d="M255,357.506c-100.693,0-189.44-17.067-241.493-46.933c-4.267,7.68-5.973,15.36-5.973,23.893
		c0,61.44,110.933,108.373,247.467,108.373s247.467-46.933,247.467-108.373c0-8.533-1.707-16.213-5.973-23.893
		C444.44,340.44,355.693,357.506,255,357.506"/>
	<path style="fill:#FFDD09;" d="M242.2,357.506c-95.573,0-180.053-17.067-229.547-46.933c-3.413,7.68-5.12,15.36-5.12,23.893
		c0,61.44,104.96,108.373,234.667,108.373s234.667-46.933,234.667-108.373c0-8.533-5.12-3.413-8.533-11.093
		C418.84,353.24,337.773,357.506,242.2,357.506"/>
	<path style="fill:#FFFFFF;" d="M13.507,310.573c8.533,5.12,17.92,9.387,28.16,13.653c-3.413,6.827-8.533,2.56-8.533,10.24
		c0,59.733,101.547,106.667,228.693,108.373c-2.56,0-4.267,0-6.827,0c-136.533,0-247.467-46.933-247.467-108.373
		C7.533,325.933,9.24,318.253,13.507,310.573"/>
	<path d="M237.933,297.773c0,5.12-3.413,8.533-8.533,8.533c-5.12,0-8.533-3.413-8.533-8.533s3.413-8.533,8.533-8.533
		C234.52,289.24,237.933,292.653,237.933,297.773"/>
	<path d="M263.533,280.706c0,5.12-3.413,8.533-8.533,8.533s-8.533-3.413-8.533-8.533c0-5.12,3.413-8.533,8.533-8.533
		S263.533,275.586,263.533,280.706"/>
	<path d="M246.467,331.906c0,5.12-3.413,8.533-8.533,8.533c-5.12,0-8.533-3.413-8.533-8.533s3.413-8.533,8.533-8.533
		C243.053,323.373,246.467,326.786,246.467,331.906"/>
	<path d="M178.2,348.973c0,5.12-3.413,8.533-8.533,8.533c-5.12,0-8.533-3.413-8.533-8.533c0-5.12,3.413-8.533,8.533-8.533
		C174.787,340.44,178.2,343.853,178.2,348.973"/>
	<path d="M161.133,323.373c0,5.12-3.413,8.533-8.533,8.533c-5.12,0-8.533-3.413-8.533-8.533c0-5.12,3.413-8.533,8.533-8.533
		C157.72,314.84,161.133,318.253,161.133,323.373"/>
	<path d="M178.2,297.773c0,5.12-3.413,8.533-8.533,8.533c-5.12,0-8.533-3.413-8.533-8.533s3.413-8.533,8.533-8.533
		C174.787,289.24,178.2,292.653,178.2,297.773"/>
	<path d="M135.533,297.773c0,5.12-3.413,8.533-8.533,8.533s-8.533-3.413-8.533-8.533s3.413-8.533,8.533-8.533
		S135.533,292.653,135.533,297.773"/>
	<path d="M263.533,306.306c0,5.12-3.413,8.533-8.533,8.533s-8.533-3.413-8.533-8.533s3.413-8.533,8.533-8.533
		S263.533,301.186,263.533,306.306"/>
	<path d="M255,451.373c-143.36,0-256-51.2-256-116.907c0-9.387,2.56-18.773,6.827-27.307c0.853-1.707,2.56-3.413,5.12-4.267
		c2.56-0.853,5.12,0,6.827,0.853C68.12,331.906,155.16,348.973,255,348.973s186.88-17.067,237.227-46.08
		c1.707-0.853,4.267-1.707,6.827-0.853c2.56,0.853,4.267,2.56,5.12,4.267c4.267,9.387,6.827,18.773,6.827,27.307
		C511,400.173,398.36,451.373,255,451.373z M17.773,322.52c-0.853,4.267-1.707,7.68-1.707,11.947
		c0,54.613,107.52,99.84,238.933,99.84s238.933-45.227,238.933-99.84c0-4.267-0.853-7.68-1.707-11.947
		C438.467,349.826,352.28,366.04,255,366.04S71.533,349.826,17.773,322.52z"/>
	<path d="M144.067,178.306c0,5.12-3.413,8.533-8.533,8.533S127,183.426,127,178.306c0-5.12,3.413-8.533,8.533-8.533
		S144.067,173.186,144.067,178.306"/>
	<path d="M169.667,152.706c0,5.12-3.413,8.533-8.533,8.533c-5.12,0-8.533-3.413-8.533-8.533c0-5.12,3.413-8.533,8.533-8.533
		C166.253,144.173,169.667,147.586,169.667,152.706"/>
	<path d="M161.133,212.44c0,5.12-3.413,8.533-8.533,8.533c-5.12,0-8.533-3.413-8.533-8.533c0-5.12,3.413-8.533,8.533-8.533
		C157.72,203.906,161.133,207.32,161.133,212.44"/>
	<path d="M178.2,186.84c0,5.12-3.413,8.533-8.533,8.533c-5.12,0-8.533-3.413-8.533-8.533c0-5.12,3.413-8.533,8.533-8.533
		C174.787,178.306,178.2,181.72,178.2,186.84"/>
	<path d="M434.2,494.04H75.8c-5.12,0-8.533-3.413-8.533-8.533V409.56c0-2.56,1.707-5.973,4.267-6.827
		c2.56-1.707,5.12-1.707,8.533-0.853c45.227,21.333,107.52,32.427,174.933,32.427s129.707-11.093,175.787-32.427
		c2.56-0.853,5.973-0.853,8.533,0.853c2.56,1.707,4.267,4.267,4.267,6.827v75.947C442.733,490.626,439.32,494.04,434.2,494.04z
		 M84.333,476.973h341.333V422.36C379.587,441.133,319,451.373,255,451.373s-124.587-10.24-170.667-29.013V476.973z"/>
	<path d="M348.867,360.92c-2.56,0-5.12-1.707-6.827-3.413c-1.707-2.56-1.707-5.973-0.853-8.533c5.12-10.24,7.68-22.187,7.68-33.28
		c0-10.24-1.707-20.48-5.973-29.867c-0.853-2.56-0.853-5.973,0.853-8.533c61.44-75.093,32.427-127.147,31.573-127.147
		c-10.24-17.067-9.387-46.08-9.387-46.933c0.853-23.04-29.867-43.52-29.867-43.52c-3.413-1.707-4.267-5.973-3.413-9.387
		C341.187,23,370.2,17.88,383.853,18.733c4.267-2.56,7.68,1.707,7.68,5.973c0.853,27.307,8.533,43.52,12.8,51.2
		c7.68-0.853,16.213,0.853,23.893,4.267c17.067,7.68,29.013,23.893,34.133,46.08l0,0c23.04,93.013,9.387,167.253-39.253,220.16
		c-0.853,0.853-2.56,1.707-4.267,2.56c-21.333,5.12-44.373,9.387-69.12,11.947C349.72,360.92,348.867,360.92,348.867,360.92z
		 M359.96,283.266c3.413,10.24,5.973,21.333,5.973,31.573c0,9.387-1.707,17.92-4.267,27.307c17.92-2.56,34.987-5.973,50.347-9.387
		c43.52-48.64,54.613-116.053,33.28-202.24l0,0c-2.56-10.24-8.533-27.307-24.747-34.133c-5.973-3.413-12.8-4.267-18.773-3.413
		c-3.413,0.853-5.973-0.853-8.533-3.413c-0.853-0.853-15.36-19.627-17.92-56.32c-7.68,0.853-18.773,4.267-23.893,13.653
		c11.093,8.533,32.427,29.013,32.427,54.613c0,6.827,0.853,27.307,7.68,38.4C402.627,160.386,412.013,217.56,359.96,283.266z
		 M417.133,340.44L417.133,340.44L417.133,340.44z"/>
	<path d="M255,366.04c-18.773,0-38.4-0.853-57.173-1.707c-2.56,0-5.12-1.707-6.827-4.267c-1.707-2.56-1.707-5.12-0.853-7.68
		c3.413-8.533,5.12-17.92,5.12-26.453c0-12.8-3.413-26.453-10.24-38.4c-0.853-2.56-1.707-5.12-0.853-6.827
		c15.36-36.693,49.493-59.733,87.893-59.733c52.053,0,93.867,41.813,93.867,93.867c0,14.507-3.413,28.16-9.387,40.96
		c-0.853,2.56-3.413,4.267-6.827,5.12C319.853,364.333,287.427,366.04,255,366.04z M348.867,352.386L348.867,352.386
		L348.867,352.386z M209.773,348.12c46.08,2.56,91.307,0.853,133.12-3.413c4.267-9.387,5.973-19.627,5.973-29.013
		c0-42.667-34.133-76.8-76.8-76.8c-30.72,0-57.173,17.92-69.973,45.227c6.827,13.653,10.24,28.16,10.24,42.667
		C212.333,332.76,211.48,340.44,209.773,348.12z"/>
	<path d="M198.68,364.333C197.827,364.333,197.827,364.333,198.68,364.333c-67.413-4.267-125.44-17.067-168.107-35.84
		c-4.267-1.707-5.973-5.12-5.973-8.533c3.413-49.493,45.227-90.453,93.867-90.453c51.2,0,93.867,44.373,93.867,96.427
		c0,11.093-1.707,22.187-5.973,32.427C204.653,361.773,202.093,364.333,198.68,364.333z M42.52,314.84
		c38.4,16.213,90.453,27.307,150.187,31.573c1.707-6.827,2.56-13.653,2.56-20.48c0-42.667-34.987-79.36-76.8-79.36
		C80.92,246.573,47.64,276.44,42.52,314.84z"/>
	<path d="M192.707,291.8c-2.56,0-5.12-1.707-6.827-3.413c0,0,0-0.853-0.853-0.853l0,0l0,0l0,0c-13.653-25.6-38.4-40.96-66.56-40.96
		c-2.56,0-5.12-0.853-6.827-3.413c-11.947-16.213-18.773-35.84-18.773-56.32c0-52.053,41.813-93.867,93.867-93.867
		S280.6,134.786,280.6,186.84c0,17.067-4.267,33.28-13.653,47.787c-1.707,2.56-3.413,3.413-5.973,4.267
		c-26.453,3.413-49.493,21.333-60.587,46.933c-0.853,2.56-1.707,4.267-4.267,5.12C196.12,291.8,194.413,291.8,192.707,291.8z
		 M122.733,229.506c27.307,1.707,52.053,14.507,69.12,36.693c13.653-22.187,36.693-38.4,62.293-43.52
		c5.973-11.093,8.533-23.04,8.533-35.84c0-42.667-34.133-76.8-76.8-76.8s-76.8,34.133-76.8,76.8
		C109.933,202.2,114.2,216.706,122.733,229.506z"/>
</g>
<g>
</g>
<g>
</g>
<g>
</g>
<g>
</g>
<g>
</g>
<g>
</g>
<g>
</g>
<g>
</g>
<g>
</g>
<g>
</g>
<g>
</g>
<g>
</g>
<g>
</g>
<g>
</g>
<g>
</g>
</svg>
